<svg xmlns="http://www.w3.org/2000/svg" viewBox="0 0 64 64" fill="none">
  <!-- Outer circle / pin shape -->
  <path d="M32 4C18.745 4 8 14.745 8 28c0 9.5 5.5 17.7 13.5 21.6L32 60l10.5-10.4C50.5 45.7 56 37.5 56 28 56 14.745 45.255 4 32 4z" stroke="#1e3a5f" stroke-width="3.5" fill="none"/>

  <!-- Running person (left side) -->
  <!-- Head -->
  <circle cx="24" cy="18" r="3" fill="#1e3a5f"/>
  <!-- Body and legs -->
  <path d="M24 21c0 0-1 4-3 7l-4 5M24 21c0 0 1 4 4 6l2 4M21 28l5 1" stroke="#1e3a5f" stroke-width="2.5" stroke-linecap="round" stroke-linejoin="round"/>
  <!-- Arms -->
  <path d="M20 24l-3-2M24 23l4-1" stroke="#1e3a5f" stroke-width="2.5" stroke-linecap="round"/>

  <!-- Lightning bolt (center) -->
  <polygon points="34,12 28,28 33,28 29,40 40,24 35,24 38,14" fill="#1e3a5f"/>

  <!-- Apple (right side) -->
  <path d="M42 24c-4 0-6 3-6 7s2.5 8 6 8 6-4 6-8-2-7-6-7z" fill="#4f46e5"/>
  <path d="M42 24c-4 0-6 3-6 7s2.5 8 6 8 6-4 6-8-2-7-6-7z" stroke="#1e3a5f" stroke-width="1.5" fill="none"/>
  <!-- Apple leaf -->
  <path d="M42 24c0 0 0-4 3-5" stroke="#4f46e5" stroke-width="2" stroke-linecap="round"/>
  <path d="M44 18c1-1 3-1 3.5 0s-1 2-2.5 2" fill="#4f46e5"/>
</svg>
